<svg width="525" height="532" viewBox="0 0 525 532" fill="none" xmlns="http://www.w3.org/2000/svg">
<g clip-path="url(#clip0_2_4)">
<path d="M117.675 88.7438L113.675 109.744L133.618 115.366L131.14 92.946L117.675 88.7438Z" fill="#A0616A"/>
<path d="M0 523.445C0 524.105 0.53003 524.635 1.19006 524.635H523.48C524.14 524.635 524.67 524.105 524.67 523.445C524.67 522.785 524.14 522.255 523.48 522.255H1.19006C0.53003 522.255 0 522.785 0 523.445Z" fill="#3F3D56"/>
<path d="M356.038 238.309H150.369C127.046 238.309 108.139 257.216 108.139 280.539V479.971C108.139 503.294 127.046 522.201 150.369 522.201H356.038C379.361 522.201 398.268 503.294 398.268 479.971V280.539C398.268 257.216 379.361 238.309 356.038 238.309Z" fill="white"/>
<path d="M356.038 523.201H150.369C126.532 523.201 107.139 503.808 107.139 479.971V280.539C107.139 256.702 126.532 237.309 150.369 237.309H356.038C379.875 237.309 399.268 256.702 399.268 280.539V479.971C399.268 503.808 379.875 523.201 356.038 523.201ZM150.369 239.309C127.635 239.309 109.139 257.804 109.139 280.539V479.971C109.139 502.706 127.635 521.201 150.369 521.201H356.038C378.772 521.201 397.268 502.706 397.268 479.971V280.539C397.268 257.804 378.772 239.309 356.038 239.309L150.369 239.309Z" fill="#3F3D56"/>
<path d="M370.936 324.77H288.268C284.761 324.77 281.909 321.917 281.909 318.411C281.909 314.905 284.761 312.052 288.268 312.052H370.936C374.442 312.052 377.295 314.905 377.295 318.411C377.295 321.917 374.442 324.77 370.936 324.77Z" fill="#3E2267"/>
<path d="M293.382 374.777H213.025C210.999 374.777 209.351 373.129 209.351 371.103C209.351 369.077 210.999 367.43 213.025 367.43H293.382C295.408 367.43 297.056 369.077 297.056 371.103C297.056 373.129 295.408 374.777 293.382 374.777Z" fill="#3E2267"/>
<path d="M179.805 251.967H133.928C133.757 251.967 133.618 252.106 133.618 252.277V257.618C133.618 257.789 133.757 257.928 133.928 257.928H179.805C179.977 257.928 180.116 257.789 180.116 257.618V252.277C180.116 252.106 179.977 251.967 179.805 251.967Z" fill="#3E2267"/>
<path d="M334.336 257.928C336.97 257.928 339.105 255.793 339.105 253.159C339.105 250.525 336.97 248.39 334.336 248.39C331.702 248.39 329.567 250.525 329.567 253.159C329.567 255.793 331.702 257.928 334.336 257.928Z" fill="#3F3D56"/>
<path d="M347.451 257.928C350.085 257.928 352.22 255.793 352.22 253.159C352.22 250.525 350.085 248.39 347.451 248.39C344.817 248.39 342.682 250.525 342.682 253.159C342.682 255.793 344.817 257.928 347.451 257.928Z" fill="#3F3D56"/>
<path d="M360.566 257.928C363.2 257.928 365.335 255.793 365.335 253.159C365.335 250.525 363.2 248.39 360.566 248.39C357.932 248.39 355.797 250.525 355.797 253.159C355.797 255.793 357.932 257.928 360.566 257.928Z" fill="#3F3D56"/>
<path d="M149.868 394.445C149.868 395.105 150.398 395.635 151.058 395.635H355.348C356.008 395.635 356.538 395.105 356.538 394.445C356.538 393.785 356.008 393.255 355.348 393.255H151.058C150.398 393.255 149.868 393.785 149.868 394.445Z" fill="#3F3D56"/>
<path d="M223.342 123.591C227.692 119.998 233.071 119.329 235.358 122.097C237.644 124.865 235.972 130.022 231.621 133.616C229.902 135.076 227.859 136.102 225.663 136.611L207.043 151.604L200.193 142.717L219.276 128.879C220.19 126.817 221.584 125.004 223.342 123.591Z" fill="#A0616A"/>
<path d="M115.722 157.421C115.713 156.758 115.719 150.974 120.001 147.319C124.92 143.119 131.861 144.819 134.295 145.415C139.919 146.792 140.38 149.205 145.661 151.683C155.542 156.321 143.162 153.947 149.041 152.46C151.076 151.945 180.353 149.915 187.641 145.429C201.814 136.706 211.472 131.416 211.472 131.416L217.785 144.042C217.785 144.042 208.656 156.736 195.808 166.14C182.629 175.785 176.039 180.608 166.024 182.472C165.162 182.632 143.952 186.254 126.869 173.491C122.973 170.58 115.833 165.246 115.722 157.421Z" fill="#E6E6E6"/>
<path d="M135.306 125.31C147.452 125.31 157.299 115.463 157.299 103.317C157.299 91.1707 147.452 81.3243 135.306 81.3243C123.16 81.3243 113.313 91.1707 113.313 103.317C113.313 115.463 123.16 125.31 135.306 125.31Z" fill="#A0616A"/>
<path d="M307.544 251.072L284.895 227.888L273.203 240.084L290.078 262.313L306.816 264.228L307.544 251.072Z" fill="#A0616A"/>
<path d="M178.215 207.596C179.54 207.706 183.75 208.55 187.774 206.336C190.52 204.825 191.928 202.579 192.404 201.864C198.305 193.001 220.956 179.18 241.285 178.329C245.888 178.136 248.919 178.67 251.673 180.106C255.578 182.141 257.137 185.057 262.093 191.888C264.804 195.625 267.803 199.145 270.547 202.858C286.609 224.594 292.698 226.301 292.076 233.269C291.385 241.001 283.047 248.336 277.505 247.489C275.235 247.143 274.356 245.564 271.324 242.369C262.432 233.002 258.754 234.732 252.424 227.557C245.033 219.18 246.001 212.234 242.145 211.966C238.569 211.717 237.05 217.643 229.416 225.514C225.923 229.116 223.435 230.768 215.857 236.026C186.347 256.499 185.876 257.937 179.92 259.57C177.314 260.285 158.821 265.355 152.232 257.286C141.923 244.659 166.278 206.605 178.215 207.596Z" fill="#2F2E41"/>
<path d="M300.62 256.311C302.286 255.563 304.233 254.689 304.86 252.677C305.284 251.317 305.04 249.639 304.163 248.479C303.152 247.141 301.655 246.965 301.716 246.728C301.808 246.368 305.348 246.509 309.233 247.882C309.966 248.141 313.288 249.355 317.513 252.654C320.899 255.297 320.443 255.826 322.566 257.35C329.082 262.028 335.194 258.341 338.72 262.728C340.081 264.421 340.661 266.825 340.089 268.769C338.938 272.672 333.346 274.015 330.289 274.709C322.928 276.379 317.356 275.015 311.537 274.035C291.751 270.701 280.634 273.738 279.146 269.154C278.864 268.286 279.321 268.36 280.847 261.993C282.353 255.709 282.303 253.984 283.586 253.48C285.516 252.723 286.812 256.169 291.675 257.348C295.985 258.393 299.54 256.796 300.62 256.311Z" fill="#2F2E41"/>
<path d="M267.277 326.917L261.555 295.015L245.032 298.541L246.512 326.41L259.287 337.393L267.277 326.917Z" fill="#A0616A"/>
<path d="M184.677 218.32C185.712 219.155 188.721 222.217 193.294 222.644C196.415 222.936 198.842 221.868 199.636 221.544C209.497 217.524 236 218.807 253.299 229.518C257.216 231.944 259.424 234.087 260.897 236.822C262.985 240.699 262.638 243.988 262.902 252.423C263.047 257.037 263.553 261.634 263.738 266.247C264.823 293.252 268.903 298.083 264.475 303.5C259.562 309.509 248.543 310.897 244.433 307.084C242.749 305.522 242.908 303.723 242.193 299.377C240.097 286.633 236.081 285.999 234.872 276.507C233.461 265.426 238.162 260.222 235.122 257.834C232.303 255.621 227.718 259.67 216.981 261.897C212.069 262.916 209.082 262.886 199.86 262.981C163.945 263.35 162.747 264.276 156.903 262.283C154.345 261.411 136.195 255.221 135.275 244.845C133.835 228.608 175.357 210.796 184.677 218.32Z" fill="#2F2E41"/>
<path d="M258.606 327.364C260.404 327.68 262.507 328.05 264.155 326.738C265.27 325.85 266.01 324.324 265.936 322.873C265.85 321.198 264.711 320.211 264.894 320.05C265.173 319.803 268.022 321.907 270.466 325.226C270.927 325.852 272.994 328.721 274.638 333.823C275.955 337.911 275.281 338.094 276.182 340.547C278.947 348.077 286.074 348.458 286.528 354.068C286.704 356.233 285.834 358.548 284.269 359.835C281.125 362.419 275.743 360.39 272.825 359.247C265.796 356.495 261.951 352.238 257.687 348.16C243.187 334.29 232.283 330.56 233.625 325.931C233.88 325.055 234.217 325.373 239.054 320.962C243.829 316.608 244.757 315.152 246.101 315.456C248.123 315.913 247.261 319.492 250.623 323.199C253.602 326.483 257.44 327.159 258.606 327.364Z" fill="#2F2E41"/>
<path d="M138.304 107.521C139.161 104.459 138.085 103.343 139.181 101.968C139.181 101.968 139.622 101.415 143.566 99.9217C142.402 93.1713 143.273 92.0298 143.273 92.0298C144.277 90.7143 146.289 90.3963 147.658 90.5683C150.554 90.9323 151.066 93.55 152.919 93.4913C155.479 93.4101 158.549 88.2865 157.596 83.8456C156.818 80.2231 153.467 77.533 152.627 77.9998C151.794 78.4626 148.795 76.4217 147.658 76.8306C146.881 77.1099 143.225 76.7383 142.397 77.1229C141.491 77.5429 138.899 80.1577 138.651 79.8282C136.929 77.5388 136.965 76.7394 135.966 76.246C134.195 75.3717 132.27 76.9877 128.951 78.5843C122.121 81.8694 120.122 79.9098 116.967 82.6764C115.373 84.074 114.519 86.745 112.875 92.0298C110.576 99.4206 109.426 103.116 110.537 106.644C111.669 110.243 113.337 109.46 115.798 114.536C118.538 120.188 117.593 123.472 120.182 124.767C122.183 125.767 125.399 125.13 126.613 123.305C128.691 120.18 123.319 115.953 125.151 111.029C126.276 108.006 129.746 105.714 131.874 106.352C134.28 107.074 134.457 111.388 135.966 111.321C137.258 111.264 138.155 108.055 138.304 107.521Z" fill="#2F2E41"/>
<path d="M121.644 128.566C126.144 123.52 144.476 128.743 146.196 136.751C146.904 140.044 144.291 141.435 145.027 145.227C146.103 150.774 152.196 150.396 156.719 156.042C163.14 164.058 156.525 171.894 163.734 185.271C165.274 188.13 166.573 190.539 169.287 192.871C175.517 198.221 181.315 196.386 184.487 201.347C186.859 205.057 185.884 209.629 185.656 210.701C184.72 215.093 182.182 216.163 180.395 219.762C177.42 225.749 180.788 230.145 180.979 237.299C181.218 246.25 176.462 258.658 166.949 262.729C156.262 267.302 143.372 259.727 137.135 252.206C133.413 247.718 132.333 243.578 130.705 238.468C123.428 215.631 119.317 217.697 113.752 199.593C107.39 178.898 106.139 154.653 113.752 146.981C114.761 145.964 117.538 143.613 119.305 139.381C121.684 133.686 119.629 130.825 121.644 128.566Z" fill="#E6E6E6"/>
<path d="M188.143 246.033C191.632 250.466 192.173 255.86 189.351 258.081C186.529 260.301 181.414 258.506 177.924 254.071C176.506 252.318 175.528 250.251 175.072 248.043L160.525 229.072L168.042 223.339L182.953 241.842C184.993 242.805 186.773 244.242 188.143 246.033Z" fill="#A0616A"/>
<path d="M134.867 147.798C135.514 147.653 141.178 146.479 145.63 149.925C150.745 153.883 150.498 161.025 150.411 163.53C150.21 169.316 147.942 170.26 146.593 175.936C144.07 186.555 148.876 196.423 151.531 201.875C152.45 203.762 155.403 209.537 161.281 215.756C172.714 227.852 182.914 234.216 182.914 234.216L171.956 243.956C171.956 243.956 154.501 238.636 142.674 227.977C130.541 217.043 111.884 178.358 108.017 168.935C107.683 168.123 112.401 181.317 121.41 161.989C123.465 157.581 127.23 149.503 134.867 147.798Z" fill="#E6E6E6"/>
<path d="M273.945 421.686C266.98 422.754 261.885 427.213 262.565 431.645C263.245 436.078 269.442 438.805 276.41 437.736C279.199 437.347 281.854 436.296 284.154 434.67L313.608 429.774L311.642 418.132L282.254 422.29C279.573 421.428 276.723 421.221 273.945 421.686Z" fill="#FFB6B6"/>
<path d="M400.87 385.395L389.449 409.63L332.034 428.958L284.392 431.499L283.199 420.056L334.832 409.26L387.815 384.223L400.87 385.395Z" fill="#E6E6E6"/>
<path d="M294.976 477.416L284.722 503.351L271.453 494.304L279.294 467.162L294.976 477.416Z" fill="#FFB6B6"/>
<path d="M252.152 467.765L225.01 493.701L235.866 505.161L263.612 483.447L252.152 467.765Z" fill="#FFB6B6"/>
<path d="M405.957 383.323L405.655 381.212L398.719 367.641L375.799 373.673L380.021 392.37L405.957 383.323Z" fill="#FFB6B6"/>
<path d="M396.306 473.797L397.011 482.856C397.011 482.856 399.925 520.843 376.402 523.859C352.879 526.875 342.625 529.89 328.753 506.367L307.039 467.765L294.356 482.856L277.484 469.575C277.484 469.575 289.547 422.528 299.198 420.719C300.404 420.493 301.611 420.38 302.798 420.355C310.787 420.188 318.319 424.096 323.099 430.5L350.466 467.162L360.418 462.638L396.306 473.797Z" fill="#2F2E41"/>
<path d="M266.024 502.145L271.453 491.891L287.135 502.748C287.135 502.748 290.754 516.018 285.325 517.827C279.897 519.637 264.818 517.224 264.818 517.224C264.818 517.224 237.073 523.256 236.47 517.827C235.866 512.399 249.136 511.192 249.136 511.192L266.024 502.145Z" fill="#2F2E41"/>
<path d="M325.134 494.907L283.214 468.494L261.802 487.669L247.326 470.781C247.326 470.781 273.865 431.576 281.706 429.766C289.547 427.957 302.214 426.75 302.214 426.75L340.816 462.337L325.134 494.907Z" fill="#2F2E41"/>
<path d="M224.406 491.288L238.279 506.367L236.45 507.932C236.45 507.932 232.851 523.607 224.406 518.304C215.962 513.002 215.359 511.796 215.359 511.796C215.359 511.796 191.233 517.224 188.82 507.573C186.408 497.923 193.042 499.732 193.042 499.732L199.067 503.351L224.406 491.288Z" fill="#2F2E41"/>
<path d="M383.037 380.307C393.696 380.307 402.338 371.666 402.338 361.006C402.338 350.347 393.696 341.705 383.037 341.705C372.377 341.705 363.736 350.347 363.736 361.006C363.736 371.666 372.377 380.307 383.037 380.307Z" fill="#FFB6B6"/>
<path d="M378.513 388.45L406.258 380.006C406.258 380.006 417.115 405.338 415.306 416.798C413.496 428.258 397.011 482.856 397.011 482.856L360.418 462.638C360.418 462.638 359.815 450.575 358.006 445.147C356.196 439.718 350.466 423.131 363.133 409.259C375.799 395.386 378.513 388.45 378.513 388.45Z" fill="#E6E6E6"/>
<path d="M317.448 515.102C312.932 520.511 312.063 527.226 315.507 530.099C318.95 532.972 325.4 530.916 329.916 525.503C331.75 523.366 333.045 520.821 333.694 518.081L352.536 494.918L343.358 487.491L324.077 510.056C321.496 511.184 319.223 512.914 317.448 515.102Z" fill="#FFB6B6"/>
<path d="M399.795 400.619L406.353 426.595L374.256 477.974L341.49 510.905L330.869 502.094L363.915 460.977L388.963 408L399.795 400.619Z" fill="#E6E6E6"/>
<path d="M365.244 357.689C370.194 357.677 370.475 357.71 371.275 357.689C377.415 357.527 379.02 355.112 382.132 355.276C387.686 355.57 380.356 383.417 377.307 396.291C374.317 408.917 384.422 420.231 385.148 421.02C395.404 432.175 413.421 434.215 416.512 429.465C419.014 425.62 410.146 419.774 412.29 411.37C414.385 403.155 424.061 404.03 426.766 396.291C429.598 388.186 420.079 384.099 414.099 364.324C410.665 352.967 411.272 350.851 408.068 343.816C399.502 325.014 357.514 333.02 362.228 350.451C363.14 353.823 360.713 357.7 365.244 357.689Z" fill="#2F2E41"/>
<path d="M426.876 128.561H224.026C218.289 128.561 213.622 123.894 213.622 118.157V10.4035C213.622 4.66733 218.289 0 224.026 0H426.876C432.613 0 437.28 4.66732 437.28 10.4035V118.157C437.28 123.894 432.613 128.561 426.876 128.561Z" fill="white"/>
<path d="M426.876 128.561H224.026C218.289 128.561 213.622 123.894 213.622 118.157V10.4035C213.622 4.66733 218.289 0 224.026 0H426.876C432.613 0 437.28 4.66732 437.28 10.4035V118.157C437.28 123.894 432.613 128.561 426.876 128.561ZM224.026 1.73731C219.247 1.73731 215.36 5.62505 215.36 10.4035V118.157C215.36 122.936 219.247 126.824 224.026 126.824H426.876C431.655 126.824 435.543 122.936 435.543 118.157V10.4035C435.543 5.62505 431.655 1.73731 426.876 1.73731H224.026Z" fill="#3F3D56"/>
<path d="M411.22 13.0298C412.66 13.0298 413.826 11.8631 413.826 10.4239C413.826 8.98463 412.66 7.8179 411.22 7.8179C409.781 7.8179 408.614 8.98463 408.614 10.4239C408.614 11.8631 409.781 13.0298 411.22 13.0298Z" fill="#3F3D56"/>
<path d="M418.169 13.0298C419.609 13.0298 420.775 11.8631 420.775 10.4239C420.775 8.98463 419.609 7.8179 418.169 7.8179C416.73 7.8179 415.564 8.98463 415.564 10.4239C415.564 11.8631 416.73 13.0298 418.169 13.0298Z" fill="#3F3D56"/>
<path d="M425.119 13.0298C426.558 13.0298 427.725 11.8631 427.725 10.4239C427.725 8.98463 426.558 7.8179 425.119 7.8179C423.68 7.8179 422.513 8.98463 422.513 10.4239C422.513 11.8631 423.68 13.0298 425.119 13.0298Z" fill="#3F3D56"/>
<path d="M228.389 52.5536C227.671 52.5536 227.087 53.1381 227.087 53.8566C227.087 54.2069 227.222 54.531 227.467 54.7702C227.715 55.0238 228.04 55.1595 228.389 55.1595H423.381C424.1 55.1595 424.684 54.5751 424.684 53.8566C424.684 53.5062 424.549 53.1822 424.303 52.943C424.056 52.6893 423.731 52.5536 423.381 52.5536H228.389Z" fill="#E6E6E6"/>
<path d="M399.059 52.1193V55.5939H228.389C227.912 55.5939 227.477 55.4028 227.165 55.0814C226.843 54.7687 226.652 54.3344 226.652 53.8566C226.652 52.9011 227.434 52.1193 228.389 52.1193H399.059Z" fill="#3E2267"/>
<path d="M421.21 45.6044H403.837C401.921 45.6044 400.362 44.046 400.362 42.1297C400.362 40.2134 401.921 38.6551 403.837 38.6551H421.21C423.126 38.6551 424.684 40.2134 424.684 42.1297C424.684 44.046 423.126 45.6044 421.21 45.6044Z" fill="#E6E6E6"/>
<path d="M307.416 27.3626H229.692C227.777 27.3626 226.218 25.8043 226.218 23.888C226.218 21.9717 227.777 20.4134 229.692 20.4134H307.416C309.332 20.4134 310.891 21.9717 310.891 23.888C310.891 25.8043 309.332 27.3626 307.416 27.3626Z" fill="#E6E6E6"/>
<path d="M228.389 91.6431C227.671 91.6431 227.087 92.2275 227.087 92.946C227.087 93.2964 227.222 93.6204 227.467 93.8597C227.715 94.1133 228.04 94.249 228.389 94.249H423.381C424.1 94.249 424.684 93.6645 424.684 92.946C424.684 92.5957 424.549 92.2717 424.303 92.0324C424.056 91.7788 423.731 91.6431 423.381 91.6431H228.389Z" fill="#E6E6E6"/>
<path d="M332.173 91.2087V94.6834H228.389C227.912 94.6834 227.477 94.4922 227.165 94.1708C226.843 93.8581 226.652 93.4238 226.652 92.946C226.652 91.9905 227.434 91.2087 228.389 91.2087H332.173Z" fill="#3E2267"/>
<path d="M421.21 84.6938H403.837C401.921 84.6938 400.362 83.1355 400.362 81.2192C400.362 79.3029 401.921 77.7446 403.837 77.7446H421.21C423.126 77.7446 424.684 79.3029 424.684 81.2192C424.684 83.1355 423.126 84.6938 421.21 84.6938Z" fill="#E6E6E6"/>
</g>
<defs>
<clipPath id="clip0_2_4">
<rect width="524.67" height="531.397" fill="white"/>
</clipPath>
</defs>
</svg>
