<svg width="26" height="24" viewBox="0 0 26 24" fill="none" xmlns="http://www.w3.org/2000/svg">
<path d="M18.4314 6L15.3194 3H11.17L8.05797 6H6.50195V20C6.50195 21.1 7.43556 22 8.57664 22H17.9127C19.0538 22 19.9874 21.1 19.9874 20V6H18.4314Z" fill="#9575CD"/>
<path d="M13.504 19.5H12.9854C12.5704 19.5 12.2074 19.15 12.2074 18.75V9.25C12.2074 8.85 12.5704 8.5 12.9854 8.5H13.504C13.919 8.5 14.2821 8.85 14.2821 9.25V18.75C14.2821 19.15 13.919 19.5 13.504 19.5ZM17.1348 19.5C16.7198 19.5 16.3567 19.15 16.3567 18.75V9.25C16.3567 8.85 16.7198 8.5 17.1348 8.5C17.5497 8.5 17.9128 8.85 17.9128 9.25V18.75C17.9128 19.15 17.5497 19.5 17.1348 19.5ZM9.35467 19.5C8.93973 19.5 8.57666 19.15 8.57666 18.75V9.25C8.57666 8.85 8.93973 8.5 9.35467 8.5C9.76961 8.5 10.1327 8.85 10.1327 9.25V18.75C10.1327 19.15 9.76961 19.5 9.35467 19.5Z" fill="#7454B3"/>
<path d="M6.50194 4H19.9874C20.558 4 21.0248 4.45 21.0248 5V6H5.4646V5C5.4646 4.45 5.9314 4 6.50194 4Z" fill="#B39DDB"/>
</svg>
