<svg width="26" height="24" viewBox="0 0 26 24" fill="none" xmlns="http://www.w3.org/2000/svg">
<path opacity="0.35" d="M21.1733 3.98902C19.8061 2.67102 17.5893 2.67102 16.222 3.98902L4.78013 14.998C4.46685 15.3 4.25835 15.687 4.18262 16.108L3.54465 19.675C3.40669 20.447 4.10274 21.117 4.90357 20.983L8.56021 20.37C8.99382 20.297 9.39424 20.097 9.70544 19.797L21.1733 8.76102C22.5415 7.44302 22.5415 5.30702 21.1733 3.98902Z" fill="#9575CD"/>
<path d="M13.9783 6.14399L18.9295 10.917L20.9876 8.93999L16.0364 4.16699L13.9783 6.14399Z" fill="#9575CD"/>
<path d="M3.93366 17.5L3.54465 19.675C3.40669 20.447 4.10275 21.117 4.90357 20.983L7.15565 20.605L3.93366 17.5Z" fill="#9575CD"/>
</svg>
